<?xml version="1.0" encoding="UTF-8" ?>
<svg version="1.1" width="32" height="32" xmlns="http://www.w3.org/2000/svg" shape-rendering="crispEdges">
<rect x="0" y="0" width="32" height="2" fill="#222034" />
<rect x="0" y="2" width="16" height="1" fill="#222034" />
<rect x="16" y="2" width="3" height="1" fill="#99E550" />
<rect x="19" y="2" width="13" height="1" fill="#222034" />
<rect x="0" y="3" width="14" height="1" fill="#222034" />
<rect x="14" y="3" width="2" height="1" fill="#99E550" />
<rect x="16" y="3" width="3" height="14" fill="#222034" />
<rect x="19" y="3" width="2" height="1" fill="#99E550" />
<rect x="21" y="3" width="11" height="1" fill="#222034" />
<rect x="0" y="4" width="13" height="1" fill="#222034" />
<rect x="13" y="4" width="1" height="1" fill="#99E550" />
<rect x="14" y="4" width="2" height="13" fill="#222034" />
<rect x="19" y="4" width="2" height="28" fill="#222034" />
<rect x="21" y="4" width="1" height="1" fill="#99E550" />
<rect x="22" y="4" width="10" height="1" fill="#222034" />
<rect x="0" y="5" width="12" height="2" fill="#222034" />
<rect x="12" y="5" width="1" height="2" fill="#99E550" />
<rect x="13" y="5" width="1" height="12" fill="#222034" />
<rect x="21" y="5" width="1" height="27" fill="#222034" />
<rect x="22" y="5" width="1" height="2" fill="#99E550" />
<rect x="23" y="5" width="9" height="21" fill="#222034" />
<rect x="0" y="7" width="11" height="25" fill="#222034" />
<rect x="11" y="7" width="1" height="20" fill="#99E550" />
<rect x="12" y="7" width="1" height="10" fill="#222034" />
<rect x="22" y="7" width="1" height="25" fill="#222034" />
<rect x="12" y="17" width="7" height="1" fill="#99E550" />
<rect x="12" y="18" width="7" height="14" fill="#222034" />
<rect x="23" y="26" width="2" height="6" fill="#222034" />
<rect x="25" y="26" width="1" height="1" fill="#99E550" />
<rect x="26" y="26" width="6" height="6" fill="#222034" />
<rect x="11" y="27" width="1" height="5" fill="#222034" />
<rect x="25" y="27" width="1" height="5" fill="#222034" />
</svg>